{
    "asset" : {
        "generator" : "Khronos glTF Blender I/O v1.5.17",
        "version" : "2.0"
    },
    "scene" : 0,
    "scenes" : [
        {
            "name" : "Scene",
            "nodes" : [
                3
            ]
        }
    ],
    "nodes" : [
        {
            "mesh" : 0,
            "name" : "lowMan",
            "translation" : [
                0,
                0,
                -100
            ]
        },
        {
            "mesh" : 1,
            "name" : "zip",
            "translation" : [
                0.05300092697143555,
                3.624336004257202,
                -140.6653594970703
            ]
        },
        {
            "children" : [
                0,
                1
            ],
            "name" : "Null",
            "translation" : [
                0,
                0,
                115
            ]
        },
        {
            "children" : [
                2
            ],
            "name" : "GruppoMaglia",
            "rotation" : [
                0.7071068286895752,
                0,
                0,
                0.7071067094802856
            ],
            "scale" : [
                0.10000000149011612,
                0.10000000149011612,
                0.10000000149011612
            ]
        }
    ],
    "materials" : [
        {
            "doubleSided" : true,
            "name" : "lowMan",
            "pbrMetallicRoughness" : {
                "metallicFactor" : 0,
                "roughnessFactor" : 0.5527864098548889
            }
        }
    ],
    "meshes" : [
        {
            "extras" : {
                "targetNames" : [
                    "aperta",
                    "intermedio"
                ]
            },
            "name" : "Mesh",
            "primitives" : [
                {
                    "attributes" : {
                        "POSITION" : 0,
                        "NORMAL" : 1,
                        "TEXCOORD_0" : 2
                    },
                    "indices" : 3,
                    "material" : 0,
                    "targets" : [
                        {
                            "POSITION" : 4,
                            "NORMAL" : 5
                        },
                        {
                            "POSITION" : 6,
                            "NORMAL" : 7
                        }
                    ]
                }
            ],
            "weights" : [
                0,
                0
            ]
        },
        {
            "name" : "Mesh.003",
            "primitives" : [
                {
                    "attributes" : {
                        "POSITION" : 8,
                        "NORMAL" : 9,
                        "TEXCOORD_0" : 10
                    },
                    "indices" : 11,
                    "material" : 0
                }
            ]
        }
    ],
    "accessors" : [
        {
            "bufferView" : 0,
            "componentType" : 5126,
            "count" : 23673,
            "max" : [
                24.583253860473633,
                13.042015075683594,
                15.100595474243164
            ],
            "min" : [
                -24.61446189880371,
                -14.651290893554688,
                -48.11408996582031
            ],
            "type" : "VEC3"
        },
        {
            "bufferView" : 1,
            "componentType" : 5126,
            "count" : 23673,
            "type" : "VEC3"
        },
        {
            "bufferView" : 2,
            "componentType" : 5126,
            "count" : 23673,
            "type" : "VEC2"
        },
        {
            "bufferView" : 3,
            "componentType" : 5123,
            "count" : 120219,
            "type" : "SCALAR"
        },
        {
            "bufferView" : 4,
            "componentType" : 5126,
            "count" : 23673,
            "max" : [
                4.936259746551514,
                0.6797170639038086,
                0.36457061767578125
            ],
            "min" : [
                -5.274846076965332,
                -0.5964927673339844,
                -0.13492965698242188
            ],
            "type" : "VEC3"
        },
        {
            "bufferView" : 5,
            "componentType" : 5126,
            "count" : 23673,
            "type" : "VEC3"
        },
        {
            "bufferView" : 6,
            "componentType" : 5126,
            "count" : 23673,
            "max" : [
                4.11836051940918,
                0.10508394241333008,
                0.21608734130859375
            ],
            "min" : [
                -3.3888232707977295,
                -0.22828340530395508,
                -0.13492965698242188
            ],
            "type" : "VEC3"
        },
        {
            "bufferView" : 7,
            "componentType" : 5126,
            "count" : 23673,
            "type" : "VEC3"
        },
        {
            "bufferView" : 8,
            "componentType" : 5126,
            "count" : 1753,
            "max" : [
                0.2065580040216446,
                0.8906857371330261,
                0.6618970632553101
            ],
            "min" : [
                -0.2065580040216446,
                -0.23590824007987976,
                -0.2587268650531769
            ],
            "type" : "VEC3"
        },
        {
            "bufferView" : 9,
            "componentType" : 5126,
            "count" : 1753,
            "type" : "VEC3"
        },
        {
            "bufferView" : 10,
            "componentType" : 5126,
            "count" : 1753,
            "type" : "VEC2"
        },
        {
            "bufferView" : 11,
            "componentType" : 5123,
            "count" : 5520,
            "type" : "SCALAR"
        }
    ],
    "bufferViews" : [
        {
            "buffer" : 0,
            "byteLength" : 284076,
            "byteOffset" : 0
        },
        {
            "buffer" : 0,
            "byteLength" : 284076,
            "byteOffset" : 284076
        },
        {
            "buffer" : 0,
            "byteLength" : 189384,
            "byteOffset" : 568152
        },
        {
            "buffer" : 0,
            "byteLength" : 240438,
            "byteOffset" : 757536
        },
        {
            "buffer" : 0,
            "byteLength" : 284076,
            "byteOffset" : 997976
        },
        {
            "buffer" : 0,
            "byteLength" : 284076,
            "byteOffset" : 1282052
        },
        {
            "buffer" : 0,
            "byteLength" : 284076,
            "byteOffset" : 1566128
        },
        {
            "buffer" : 0,
            "byteLength" : 284076,
            "byteOffset" : 1850204
        },
        {
            "buffer" : 0,
            "byteLength" : 21036,
            "byteOffset" : 2134280
        },
        {
            "buffer" : 0,
            "byteLength" : 21036,
            "byteOffset" : 2155316
        },
        {
            "buffer" : 0,
            "byteLength" : 14024,
            "byteOffset" : 2176352
        },
        {
            "buffer" : 0,
            "byteLength" : 11040,
            "byteOffset" : 2190376
        }
    ],
    "buffers" : [
        {
            "byteLength" : 2201416,
            "uri" : "data:application/octet-stream;base64,"
        }
    ]
}
